<?xml version="1.0" encoding="UTF-8"?>
<svg width="48px" height="34px" viewBox="0 0 48 34" version="1.1" xmlns="http://www.w3.org/2000/svg" xmlns:xlink="http://www.w3.org/1999/xlink">
    <!-- Generator: Sketch 47.1 (45422) - http://www.bohemiancoding.com/sketch -->
    <title>Shape</title>
    <desc>Created with Sketch.</desc>
    <defs></defs>
    <g id="Page-1" stroke="none" stroke-width="1" fill="none" fill-rule="evenodd">
        <g id="Desktop-HD" transform="translate(-220.000000, -2533.000000)" fill-rule="nonzero" fill="#5C5454">
            <g id="BARCELONE" transform="translate(200.000000, 1717.000000)">
                <g id="right-arrow-(2)" transform="translate(20.000000, 816.000000)">
                    <path d="M32.3226421,0.511335923 C31.6687202,-0.170445308 30.5803747,-0.170445308 29.9035884,0.511335923 C29.2496666,1.170084 29.2496666,2.26646193 29.9035884,2.92367446 L42.1695776,15.2801915 L1.69349,15.2801915 C0.749952366,15.281727 0,16.0372143 0,16.9877157 C0,17.938217 0.749952366,18.718273 1.69349,18.718273 L42.1695776,18.718273 L29.9035884,31.0517568 C29.2496666,31.7335381 29.2496666,32.8314515 29.9035884,33.4886641 C30.5803747,34.1704453 31.6702445,34.1704453 32.3226421,33.4886641 L47.4924103,18.206937 C48.1691966,17.548189 48.1691966,16.451811 47.4924103,15.7945985 L32.3226421,0.511335923 Z" id="Shape"></path>
                </g>
            </g>
        </g>
    </g>
</svg>