<svg width="32" height="32" xmlns="http://www.w3.org/2000/svg">

 <g>
  <title>background</title>
  <rect fill="none" id="canvas_background" height="402" width="582" y="-1" x="-1"/>
 </g>
 <g>
  <title>Layer 1</title>
  <rect id="svg_3" width="32" height="32" fill="#FFFFFF"/>
  <path fill="#aaaaaa" id="svg_5" d="m22.118,7.843l-12.236,0c-1.152,0 -2.039,0.888 -2.039,2.039l0,12.235c0,1.151 0.888,2.039 2.039,2.039l12.235,0c1.151,0 2.039,-0.888 2.039,-2.039l0,-12.235c0.001,-1.151 -0.887,-2.039 -2.038,-2.039zm-6.106,4.952c1.809,0 3.275,1.421 3.275,3.174c0,1.752 -1.466,3.174 -3.275,3.174c-1.808,0 -3.274,-1.422 -3.274,-3.174c0,-1.753 1.467,-3.174 3.274,-3.174zm6.106,8.813c0,0.357 -0.153,0.51 -0.51,0.51l-11.216,0c-0.356,0 -0.51,-0.152 -0.51,-0.51l0,-7.137l1.271,0.276c-0.136,0.444 -0.211,0.913 -0.211,1.399c0,2.711 2.271,4.911 5.069,4.911c2.8,0 5.069,-2.2 5.069,-4.911c0,-0.487 -0.074,-0.956 -0.21,-1.399l1.246,-0.276l0,7.137l0.002,0zm0,-9.177c0,0.282 -0.228,0.51 -0.51,0.51l-2.039,0c-0.282,0 -0.51,-0.228 -0.51,-0.51l0,-2.039c0,-0.282 0.228,-0.51 0.51,-0.51l2.039,0c0.282,0 0.51,0.228 0.51,0.51l0,2.039z"/>
 </g>
</svg>