<svg width="48" height="48" xmlns="http://www.w3.org/2000/svg">

 <g>
  <title>background</title>
  <rect fill="none" id="canvas_background" height="50" width="50" y="-1" x="-1"/>
 </g>
 <g>
  <title>Layer 1</title>
  <path stroke="null" id="svg_1" fill="#aaaaaa" d="m13.290291,35.572211c0.055278,0.006037 0.11232,0.015956 0.16848,0.02277l21.082458,0c0.137313,-0.019751 0.274626,-0.03726 0.410272,-0.063049c1.076156,-0.201393 1.955408,-0.991182 2.166229,-1.943551c0.021562,-0.104103 0.038812,-0.207517 0.057826,-0.310844l0,-18.555074c-0.018132,-0.101085 -0.034598,-0.203722 -0.05616,-0.304807c-0.231501,-1.03905 -1.205726,-1.845485 -2.40116,-1.989867c-0.050083,-0.005347 -0.097618,-0.01518 -0.14682,-0.02277l-21.142931,0c-0.126924,0.020527 -0.255709,0.035707 -0.380869,0.060806c-1.167796,0.234082 -2.031464,1.061044 -2.19818,2.102337c-0.006861,0.043297 -0.01725,0.086681 -0.024993,0.129978l0,18.605099c0.024209,0.117041 0.043125,0.23641 0.07341,0.353451c0.258258,1.004895 1.232482,1.783989 2.392437,1.91552zm16.406376,-20.339667c0,-0.525175 0.473293,-0.944003 1.067531,-0.944779c0.830051,-0.000776 1.660102,0 2.490056,0c0.59512,0.000776 1.067531,0.418052 1.067531,0.943227c0,0.731915 0,1.464693 0,2.196608c0,0.491796 -0.454279,0.912867 -1.012253,0.925028c-0.434481,0.009142 -0.868863,0.001552 -1.302462,0.001552l0,0.004571c-0.399883,0 -0.800648,0.000776 -1.200531,0.000776c-0.492307,-0.002242 -0.894836,-0.239429 -1.044204,-0.625569c-0.03891,-0.102637 -0.062237,-0.215107 -0.063021,-0.323781c-0.006077,-0.725878 -0.003528,-1.451755 -0.002646,-2.177633zm-5.697058,4.067882c2.990203,-0.001552 5.401753,2.172285 5.33687,4.802126c-0.063021,2.551612 -2.476236,4.649377 -5.459579,4.593142c-2.867592,-0.053992 -5.259147,-2.137354 -5.216905,-4.767194c0.040674,-2.559805 2.416744,-4.62954 5.339614,-4.628074zm-10.32492,2.56981l0,-0.062359c0.842107,0 1.67304,0 2.50907,0c-0.652946,1.965545 -0.475057,3.859675 0.638245,5.663329c0.748016,1.210774 1.818978,2.149515 3.182794,2.822177c2.699112,1.333162 6.04774,1.199389 8.590525,-0.325334c0.980301,-0.587533 1.782714,-1.327124 2.400278,-2.217911s0.997551,-1.854628 1.136628,-2.890573c0.139077,-1.035945 0.030187,-2.052226 -0.324709,-3.050911l2.515146,0l0,0.071415c0,3.426443 0.000882,6.855128 0,10.28226c0,0.497833 -0.4828,0.921233 -1.049399,0.921233c-6.184171,0.000776 -12.367558,0.000776 -18.551826,0c-0.561404,0 -1.046851,-0.424866 -1.046851,-0.918214c-0.000784,-3.431618 0.000098,-6.863321 0.000098,-10.295111z"/>
 </g>
</svg>