<?xml version="1.0" encoding="utf-8"?>
<!-- Generator: Adobe Illustrator 22.0.0, SVG Export Plug-In . SVG Version: 6.00 Build 0)  -->
<svg version="1.1" id="Calque_1" xmlns="http://www.w3.org/2000/svg" xmlns:xlink="http://www.w3.org/1999/xlink" x="0px" y="0px"
	 viewBox="0 0 100 125" style="enable-background:new 0 0 100 125;" xml:space="preserve">
<style type="text/css">
	.st0{fill:#D8D8D8;}
</style>
<path class="st0" d="M50.4,31c-0.6-3.6-3.5-6.3-7-6.3h-1.9v-0.9h2.2l0.9-9.5c0-0.7-0.8-1.4-1.8-1.4h-6.2c-1,0-1.8,0.6-1.8,1.4
	l0.9,9.5h2.2v0.9H36c-3.5,0-6.4,2.7-7,6.3c-4.6,1.8-7.9,6.3-8,11.5c-1,1-1.6,2.3-1.6,3.8c0,1.6,0.7,3.1,1.9,4.1v33.8
	c0,5.9,4.9,10.8,10.8,10.8h15.2c5.9,0,10.8-4.9,10.8-10.8V50.4c1.1-1,1.8-2.4,1.8-4.1c0-1.5-0.6-2.9-1.6-3.8
	C58.2,37.3,54.9,32.9,50.4,31z M40.7,16.6l-0.3,3.6H39l-0.3-3.6H40.7z M36,28.3h7.4c1.2,0,2.3,0.7,2.9,1.8c-0.2,0-0.4,0-0.6,0H33.6
	c-0.2,0-0.4,0-0.6,0C33.7,29.1,34.8,28.3,36,28.3z M33.6,33.8h12.1c4.4,0,8,3.1,8.8,7.2H24.8C25.6,36.8,29.3,33.8,33.6,33.8z
	 M54.5,84.2c0,4-3.2,7.2-7.2,7.2H32.1c-4,0-7.2-3.2-7.2-7.2V51.8h29.6V84.2z M54.5,48.2H24.8c-1,0-1.8-0.8-1.8-1.8s0.8-1.8,1.8-1.8
	h29.7c1,0,1.8,0.8,1.8,1.8C56.3,47.3,55.5,48.2,54.5,48.2z M69.2,19.3C69.2,19.4,69.2,19.4,69.2,19.3C69.2,19.4,69.2,19.4,69.2,19.3
	c0,1.1-0.8,1.9-1.8,1.9h-6c-1,0-1.8-0.8-1.8-1.8l0,0l0,0c0-1,0.8-1.8,1.8-1.8h6C68.4,17.5,69.2,18.3,69.2,19.3z M80.6,19.4
	L80.6,19.4c0,1-0.8,1.8-1.8,1.8h-5.4c-1,0-1.8-0.8-1.8-1.8l0,0l0,0c0-1,0.8-1.8,1.8-1.8h5.4C79.8,17.5,80.6,18.3,80.6,19.4
	L80.6,19.4z M48.7,14.3c-0.2-1,0.3-1.9,1.3-2.2l5.2-1.3c1-0.2,1.9,0.3,2.2,1.3c0.2,1-0.3,1.9-1.3,2.2l-5.2,1.3
	c-0.1,0-0.3,0.1-0.4,0.1C49.6,15.7,48.9,15.1,48.7,14.3z M59.7,11.5c-0.2-1,0.3-1.9,1.3-2.2l5.8-1.5c1-0.2,1.9,0.3,2.2,1.3
	c0.2,1-0.3,1.9-1.3,2.2l-5.8,1.5c-0.1,0-0.3,0.1-0.4,0.1C60.7,12.9,59.9,12.3,59.7,11.5z M71.4,8.6c-0.2-1,0.3-1.9,1.3-2.2l5.2-1.3
	c1-0.2,1.9,0.3,2.2,1.3c0.2,1-0.3,1.9-1.3,2.2l-5.2,1.3c-0.1,0-0.3,0.1-0.4,0.1C72.3,9.9,71.6,9.4,71.4,8.6z M48.2,19.4L48.2,19.4
	L48.2,19.4c0-1.1,0.8-1.9,1.8-1.9h5.4c1,0,1.8,0.8,1.8,1.8l0,0l0,0c0,1-0.8,1.8-1.8,1.8H50C49,21.2,48.2,20.4,48.2,19.4z M57.4,26.7
	c-0.2,0.8-0.9,1.4-1.7,1.4c-0.1,0-0.3,0-0.4-0.1L50,26.6c-1-0.2-1.5-1.2-1.3-2.2s1.2-1.5,2.2-1.3l5.2,1.3
	C57.1,24.7,57.7,25.7,57.4,26.7z M69.1,29.6c-0.2,0.8-0.9,1.4-1.7,1.4c-0.1,0-0.3,0-0.4-0.1l-6-1.5c-1-0.2-1.5-1.2-1.3-2.2
	s1.2-1.5,2.2-1.3l5.8,1.5C68.7,27.7,69.3,28.6,69.1,29.6z M80.1,32.4c-0.2,0.8-0.9,1.4-1.7,1.4c-0.1,0-0.3,0-0.4-0.1l-5.2-1.3
	c-1-0.2-1.5-1.2-1.3-2.2s1.2-1.5,2.2-1.3l5.2,1.3C79.8,30.4,80.4,31.4,80.1,32.4z"/>
</svg>
