<svg width="48" height="48" xmlns="http://www.w3.org/2000/svg">

 <g>
  <title>background</title>
  <rect fill="none" id="canvas_background" height="402" width="582" y="-1" x="-1"/>
 </g>
 <g>
  <title>Layer 1</title>
  <path id="svg_2" fill="#aaaaaa" d="m23.8519,19.84436c-1.7454,-4.8354 6.1103,-9.4326 9.347,-5.0194c0,0 1.2547,-0.045 3.5445,-1.278c0,0 -0.546,1.7435 -2.3074,2.8973c0,0 1.3386,-0.0087 2.9591,-0.7308c0,0 -1.0216,1.6557 -2.6068,2.7653c0,0 -0.0352,2.4835 -0.4051,4.0335s-1.6029,5.8653 -5.3017,8.8948c-3.6988,3.0296 -8.2079,3.6989 -10.7619,3.5227c-2.5539,-0.1761 -5.6891,-1.1448 -7.7147,-2.3954c0,0 4.6324,0.4932 8.0494,-2.325c0,0 -3.4522,0.1585 -5.0903,-3.8221c0,0 1.1801,0.2113 2.4483,-0.1409c0,0 -4.3506,-0.7926 -4.4034,-5.4778c0,0 1.4267,0.7045 2.4835,0.6341c0,0 -4.1568,-3.1705 -1.6204,-7.2744c0,0 4.16,5.5141 11.3799,5.7161z"/>
 </g>
</svg>